<svg width="49" height="48" viewBox="0 0 49 48" fill="none" xmlns="http://www.w3.org/2000/svg">
<path d="M24.5 28.5C26.9853 28.5 29 26.4853 29 24C29 21.5147 26.9853 19.5 24.5 19.5C22.0147 19.5 20 21.5147 20 24C20 26.4853 22.0147 28.5 24.5 28.5Z" stroke="#7055E4" stroke-width="2" stroke-linecap="round" stroke-linejoin="round"/>
<path d="M35.6 28.5C35.4003 28.9524 35.3408 29.4543 35.429 29.9409C35.5172 30.4275 35.7492 30.8765 36.095 31.23L36.185 31.32C36.4639 31.5986 36.6852 31.9295 36.8362 32.2937C36.9872 32.6579 37.0649 33.0483 37.0649 33.4425C37.0649 33.8367 36.9872 34.2271 36.8362 34.5913C36.6852 34.9555 36.4639 35.2864 36.185 35.565C35.9064 35.8439 35.5755 36.0652 35.2113 36.2162C34.8471 36.3672 34.4567 36.4449 34.0625 36.4449C33.6683 36.4449 33.2779 36.3672 32.9137 36.2162C32.5495 36.0652 32.2186 35.8439 31.94 35.565L31.85 35.475C31.4965 35.1292 31.0475 34.8972 30.5609 34.809C30.0743 34.7208 29.5724 34.7803 29.12 34.98C28.6763 35.1701 28.298 35.4859 28.0315 35.8883C27.7649 36.2907 27.6219 36.7623 27.62 37.245V37.5C27.62 38.2956 27.3039 39.0587 26.7413 39.6213C26.1787 40.1839 25.4156 40.5 24.62 40.5C23.8244 40.5 23.0613 40.1839 22.4987 39.6213C21.9361 39.0587 21.62 38.2956 21.62 37.5V37.365C21.6084 36.8685 21.4477 36.387 21.1588 35.9831C20.8699 35.5791 20.4661 35.2714 20 35.1C19.5476 34.9003 19.0457 34.8408 18.5591 34.929C18.0725 35.0172 17.6235 35.2492 17.27 35.595L17.18 35.685C16.9014 35.9639 16.5705 36.1852 16.2063 36.3362C15.8421 36.4872 15.4517 36.5649 15.0575 36.5649C14.6633 36.5649 14.2729 36.4872 13.9087 36.3362C13.5445 36.1852 13.2136 35.9639 12.935 35.685C12.6561 35.4064 12.4348 35.0755 12.2838 34.7113C12.1328 34.3471 12.0551 33.9567 12.0551 33.5625C12.0551 33.1683 12.1328 32.7779 12.2838 32.4137C12.4348 32.0495 12.6561 31.7186 12.935 31.44L13.025 31.35C13.3708 30.9965 13.6028 30.5475 13.691 30.0609C13.7792 29.5743 13.7197 29.0724 13.52 28.62C13.3299 28.1763 13.0141 27.798 12.6117 27.5315C12.2093 27.2649 11.7377 27.1219 11.255 27.12H11C10.2044 27.12 9.44129 26.8039 8.87868 26.2413C8.31607 25.6787 8 24.9156 8 24.12C8 23.3244 8.31607 22.5613 8.87868 21.9987C9.44129 21.4361 10.2044 21.12 11 21.12H11.135C11.6315 21.1084 12.113 20.9477 12.5169 20.6588C12.9209 20.3699 13.2286 19.9661 13.4 19.5C13.5997 19.0476 13.6592 18.5457 13.571 18.0591C13.4828 17.5725 13.2508 17.1235 12.905 16.77L12.815 16.68C12.5361 16.4014 12.3148 16.0705 12.1638 15.7063C12.0128 15.3421 11.9351 14.9517 11.9351 14.5575C11.9351 14.1633 12.0128 13.7729 12.1638 13.4087C12.3148 13.0445 12.5361 12.7136 12.815 12.435C13.0936 12.1561 13.4245 11.9348 13.7887 11.7838C14.1529 11.6328 14.5433 11.5551 14.9375 11.5551C15.3317 11.5551 15.7221 11.6328 16.0863 11.7838C16.4505 11.9348 16.7814 12.1561 17.06 12.435L17.15 12.525C17.5035 12.8708 17.9525 13.1028 18.4391 13.191C18.9257 13.2792 19.4276 13.2197 19.88 13.02H20C20.4437 12.8299 20.822 12.5141 21.0885 12.1117C21.3551 11.7093 21.4981 11.2377 21.5 10.755V10.5C21.5 9.70435 21.8161 8.94129 22.3787 8.37868C22.9413 7.81607 23.7044 7.5 24.5 7.5C25.2956 7.5 26.0587 7.81607 26.6213 8.37868C27.1839 8.94129 27.5 9.70435 27.5 10.5V10.635C27.5019 11.1177 27.6449 11.5893 27.9115 11.9917C28.178 12.3941 28.5563 12.7099 29 12.9C29.4524 13.0997 29.9543 13.1592 30.4409 13.071C30.9275 12.9828 31.3765 12.7508 31.73 12.405L31.82 12.315C32.0986 12.0361 32.4295 11.8148 32.7937 11.6638C33.1579 11.5128 33.5483 11.4351 33.9425 11.4351C34.3367 11.4351 34.7271 11.5128 35.0913 11.6638C35.4555 11.8148 35.7864 12.0361 36.065 12.315C36.3439 12.5936 36.5652 12.9245 36.7162 13.2887C36.8672 13.6529 36.9449 14.0433 36.9449 14.4375C36.9449 14.8317 36.8672 15.2221 36.7162 15.5863C36.5652 15.9505 36.3439 16.2814 36.065 16.56L35.975 16.65C35.6292 17.0035 35.3972 17.4525 35.309 17.9391C35.2208 18.4257 35.2803 18.9276 35.48 19.38V19.5C35.6701 19.9437 35.9859 20.322 36.3883 20.5885C36.7907 20.8551 37.2623 20.9981 37.745 21H38C38.7956 21 39.5587 21.3161 40.1213 21.8787C40.6839 22.4413 41 23.2044 41 24C41 24.7956 40.6839 25.5587 40.1213 26.1213C39.5587 26.6839 38.7956 27 38 27H37.865C37.3823 27.0019 36.9107 27.1449 36.5083 27.4115C36.1059 27.678 35.7901 28.0563 35.6 28.5Z" stroke="#7055E4" stroke-width="2" stroke-linecap="round" stroke-linejoin="round"/>
</svg>
