<svg width="48" height="32" viewBox="0 0 48 32" fill="none" xmlns="http://www.w3.org/2000/svg">
<path d="M22.7959 21.5471L23.4032 21.0361C25.2083 19.5177 26.5027 17.4809 27.1111 15.2019C27.7194 12.9229 27.6122 10.5119 26.8041 8.29589C25.9959 6.07986 24.5259 4.16594 22.5933 2.8136C20.6606 1.46125 18.3589 0.735916 16.0001 0.735916C13.6413 0.735916 11.3396 1.46125 9.40694 2.8136C7.4743 4.16594 6.00426 6.07986 5.19612 8.29589C4.38797 10.5119 4.28081 12.9229 4.88916 15.2019C5.49751 17.4809 6.79195 19.5177 8.59698 21.0361L9.20433 21.5471L8.48125 21.8743C5.50808 23.2197 2.94959 25.3371 1.07179 28.0061L22.7959 21.5471ZM22.7959 21.5471L23.519 21.8743M22.7959 21.5471L23.519 21.8743M23.519 21.8743C26.4923 23.2198 29.0508 25.3372 30.9287 28.0064L30.9358 28.0166L30.9435 28.0264C31.0893 28.2133 31.1957 28.4279 31.2562 28.6571C31.3166 28.8864 31.3298 29.1255 31.295 29.36C31.2602 29.5945 31.1782 29.8195 31.0538 30.0213C30.9294 30.2232 30.7653 30.3976 30.5714 30.5341C30.3776 30.6706 30.158 30.7663 29.9261 30.8153C29.6941 30.8644 29.4547 30.8658 29.2221 30.8195C28.9896 30.7732 28.7689 30.6801 28.5735 30.5459C28.378 30.4117 28.2119 30.2392 28.0851 30.0389L28.0787 30.0288L28.0718 30.0189C26.7111 28.0809 24.9037 26.4989 22.8026 25.4068C20.7014 24.3147 18.3682 23.7446 16.0001 23.7446C13.6321 23.7446 11.2988 24.3147 9.19765 25.4068C7.09647 26.4989 5.28912 28.0809 3.92839 30.0189L3.92728 30.0205C3.76732 30.2503 3.55404 30.4378 3.30573 30.567C3.05741 30.6962 2.78147 30.7633 2.50154 30.7625L2.49848 30.7625C2.13947 30.7637 1.78918 30.652 1.49711 30.4432L1.4947 30.4415M23.519 21.8743L1.4947 30.4415M1.4947 30.4415C1.11613 30.1743 0.859002 29.7678 0.779719 29.3112C0.70046 28.8548 0.805408 28.3856 1.07154 28.0064L1.4947 30.4415ZM45.7902 30.4391L45.7902 30.4391C45.9788 30.3084 46.1395 30.1414 46.2629 29.9481C46.3864 29.7547 46.4702 29.5387 46.5095 29.3126C46.5487 29.0865 46.5427 28.8549 46.4916 28.6312C46.4406 28.4075 46.3456 28.1962 46.2121 28.0095L46.2099 28.0065C44.3321 25.3372 41.7735 23.2198 38.8002 21.8743L38.0751 21.5462L38.6854 21.0353C40.4953 19.5204 41.7943 17.4845 42.4056 15.2048C43.0169 12.9252 42.9108 10.5125 42.1017 8.29529C41.2926 6.07809 39.8198 4.16413 37.8839 2.81399C35.948 1.46385 33.643 0.74314 31.2828 0.749995L31.2805 0.750001C30.2302 0.748251 29.1847 0.893284 28.1745 1.18089L28.1655 1.18344L28.1655 1.18336C27.9411 1.24274 27.7308 1.34616 27.5468 1.48761C27.3627 1.62905 27.2087 1.8057 27.0936 2.00725C26.9785 2.20881 26.9046 2.43125 26.8763 2.66162C26.848 2.892 26.8658 3.1257 26.9286 3.34914C26.9915 3.57257 27.0982 3.78126 27.2425 3.96307L26.864 4.26344L27.2425 3.96307C27.3868 4.14487 27.5658 4.29615 27.7691 4.40811C27.9725 4.52006 28.196 4.59045 28.4268 4.61517C28.6576 4.63989 28.891 4.61845 29.1134 4.55211L29.1192 4.55039L29.1192 4.55043C29.8227 4.34975 30.5508 4.24862 31.2823 4.25M45.7902 30.4391L42.9439 30.3062L43.3525 30.0182C43.3524 30.018 43.3523 30.0178 43.3521 30.0176C41.9886 28.0834 40.1809 26.5046 38.0806 25.414C35.9802 24.3232 33.6487 23.7526 31.2819 23.75H31.2814C30.8172 23.75 30.3721 23.5656 30.0439 23.2374C29.7157 22.9092 29.5314 22.4641 29.5314 22C29.5314 21.5359 29.7157 21.0908 30.0439 20.7626C30.3721 20.4344 30.8172 20.25 31.2814 20.25C33.4031 20.25 35.4379 19.4071 36.9382 17.9069C38.4385 16.4066 39.2814 14.3717 39.2814 12.25C39.2814 10.1283 38.4385 8.09343 36.9382 6.59314C35.4381 5.09307 33.4037 4.25025 31.2823 4.25M45.7902 30.4391L45.7844 30.4432M45.7902 30.4391L45.7844 30.4432M31.2823 4.25L31.2814 4.75V4.25C31.2817 4.25 31.282 4.25 31.2823 4.25ZM39.0064 21.4187L39.2125 20.9632C39.2813 20.9943 39.3498 21.0258 39.4182 21.0577C39.2839 21.181 39.1466 21.3014 39.0064 21.4187ZM39.0064 21.4187L39.3273 21.8022C39.3864 21.7527 39.4449 21.7028 39.503 21.6523C39.3387 21.5721 39.1732 21.4942 39.0064 21.4187ZM45.7844 30.4432C45.4924 30.6519 45.1424 30.7635 44.7836 30.7625L45.7844 30.4432ZM9.34835 7.80543C8.4693 9.12103 8.00011 10.6677 8.00011 12.25C8.00011 14.3717 8.84296 16.4066 10.3433 17.9069C11.8435 19.4071 13.8784 20.25 16.0001 20.25C17.5824 20.25 19.1291 19.7808 20.4447 18.9018C21.7603 18.0227 22.7856 16.7733 23.3911 15.3115C23.9966 13.8497 24.1551 12.2411 23.8464 10.6893C23.5377 9.13743 22.7758 7.71196 21.657 6.59314C20.5381 5.47432 19.1127 4.7124 17.5608 4.40371C16.009 4.09503 14.4004 4.25346 12.9386 4.85896C11.4768 5.46446 10.2274 6.48984 9.34835 7.80543Z" fill="#7055E4" stroke="#4CAF4F"/>
</svg>
